---
title: Order example
---
erDiagram
    CUSTOMER ||--o{ ORDER : places
    ORDER ||--|{ LINE-ITEM : contains
    CUSTOMER }|..|{ DELIVERY-ADDRESS : uses

    CUSTOMER ||--o{ ORDER : places
    CUSTOMER {
        string name
        string custNumber
        string sector
    }
    ORDER ||--|{ LINE-ITEM : contains
    ORDER {
        int orderNumber
        string deliveryAddress
    }
    LINE-ITEM["Line item"] {
        string productCode
        int quantity
        float pricePerUnit
    }

	E1 |o--o| E2: relation
	E3 ||--|| E4: relation
	E5 }o--o{ E6: relation
	E7 }|--|{ E8: relation

	CAR ||--o{ NAMED-DRIVER : allows
    CAR {
        string registrationNumber PK
        string make
        string model
        string[] parts
    }
    PERSON ||--o{ NAMED-DRIVER : is
    PERSON {
        string driversLicense PK "The license #"
        string(99) firstName "Only 99 characters are allowed"
        string lastName
        string phone UK
        int age
    }
    NAMED-DRIVER {
        string carRegistrationNumber PK, FK
        string driverLicence PK, FK
    }