---
title: Simple sample
---
stateDiagram-v2
    s0
    state "This is a state description" as s1
    s2 : This is a state description

    s1 --> s2
    s2 --> s3: A transition
 

    [*] --> First

    state First {
        [*] --> Second

        state Second {
            [*] --> second
            second --> Third

            state Third {
                [*] --> third
                third --> [*]
            }
        }
    }
  
    NamedComposite: Another Composite
    state NamedComposite {
        [*] --> namedSimple
        namedSimple --> [*]
        namedSimple: Another simple
    }


    1 --> 2
    1 --> 3

    state 1 {
        [*] --> 11
        11 --> [*]
    }
    state 2 {
        [*] --> 21
        21 --> [*]
    }
    state 3 {
        [*] --> 31
        31 --> [*]
    }

    state if_state <<choice>>

    IsPositive --> if_state
    if_state --> False: if n < 0
    if_state --> True : if n >= 0

        state fork_state <<fork>>

      fork_state --> State2
      fork_state --> State3

      state join_state <<join>>
      State2 --> join_state
      State3 --> join_state
      join_state --> State4

        N1: The state with a note
        note right of N1
            Important information! You can write
            notes.
        end note
        N1 --> N2
        note left of N2 : This is the note to the left.

		%% this is a comment


		    state Active { %% another comment
        [*] --> NumLockOff
        NumLockOff --> NumLockOn : EvNumLockPressed
        NumLockOn --> NumLockOff : EvNumLockPressed
        --
        [*] --> CapsLockOff
        CapsLockOff --> CapsLockOn : EvCapsLockPressed
        CapsLockOn --> CapsLockOff : EvCapsLockPressed
        --
        [*] --> ScrollLockOff
        ScrollLockOff --> ScrollLockOn : EvScrollLockPressed
        ScrollLockOn --> ScrollLockOff : EvScrollLockPressed
    }